<svg width="400" height="600" xmlns="http://www.w3.org/2000/svg">
  <rect width="400" height="600" fill="white"/>
  <text x="200" y="40" font-family="Arial, sans-serif" font-size="28" font-weight="bold" text-anchor="middle" fill="#333">B Major (Barre)</text>
  <text x="100" y="100" font-family="Arial, sans-serif" font-size="20" text-anchor="middle" fill="#666">E</text>
  <text x="141" y="100" font-family="Arial, sans-serif" font-size="20" text-anchor="middle" fill="#666">A</text>
  <text x="182" y="100" font-family="Arial, sans-serif" font-size="20" text-anchor="middle" fill="#666">D</text>
  <text x="223" y="100" font-family="Arial, sans-serif" font-size="20" text-anchor="middle" fill="#666">G</text>
  <text x="264" y="100" font-family="Arial, sans-serif" font-size="20" text-anchor="middle" fill="#666">B</text>
  <text x="305" y="100" font-family="Arial, sans-serif" font-size="20" text-anchor="middle" fill="#666">e</text>
  <text x="100" y="132" font-family="Arial, sans-serif" font-size="24" font-weight="bold" text-anchor="middle" fill="#333">X</text>
  <rect x="80" y="150" width="245" height="6" fill="#333"/>
  <line x1="100" y1="156" x2="100" y2="424" stroke="#888" stroke-width="2"/>
  <line x1="141" y1="156" x2="141" y2="424" stroke="#888" stroke-width="2"/>
  <line x1="182" y1="156" x2="182" y2="424" stroke="#888" stroke-width="2"/>
  <line x1="223" y1="156" x2="223" y2="424" stroke="#888" stroke-width="2"/>
  <line x1="264" y1="156" x2="264" y2="424" stroke="#888" stroke-width="2"/>
  <line x1="305" y1="156" x2="305" y2="424" stroke="#888" stroke-width="2"/>
  <line x1="80" y1="156" x2="325" y2="156" stroke="#333" stroke-width="2"/>
  <line x1="80" y1="223" x2="325" y2="223" stroke="#333" stroke-width="2"/>
  <line x1="80" y1="290" x2="325" y2="290" stroke="#333" stroke-width="2"/>
  <line x1="80" y1="357" x2="325" y2="357" stroke="#333" stroke-width="2"/>
  <line x1="80" y1="424" x2="325" y2="424" stroke="#333" stroke-width="2"/>
  <text x="60" y="194" font-family="Arial, sans-serif" font-size="18" text-anchor="middle" fill="#999">1</text>
  <text x="60" y="261" font-family="Arial, sans-serif" font-size="18" text-anchor="middle" fill="#999">2</text>
  <text x="60" y="328" font-family="Arial, sans-serif" font-size="18" text-anchor="middle" fill="#999">3</text>
  <text x="60" y="395" font-family="Arial, sans-serif" font-size="18" text-anchor="middle" fill="#999">4</text>
  <circle cx="141" cy="256.5" r="18" fill="#FF8C00"/>
  <text x="141" y="264.5" font-family="Arial, sans-serif" font-size="16" font-weight="bold" text-anchor="middle" fill="white">1</text>
  <circle cx="182" cy="390.5" r="18" fill="#333"/>
  <text x="182" y="398.5" font-family="Arial, sans-serif" font-size="16" font-weight="bold" text-anchor="middle" fill="white">2</text>
  <circle cx="223" cy="390.5" r="18" fill="#333"/>
  <text x="223" y="398.5" font-family="Arial, sans-serif" font-size="16" font-weight="bold" text-anchor="middle" fill="white">3</text>
  <circle cx="264" cy="390.5" r="18" fill="#333"/>
  <text x="264" y="398.5" font-family="Arial, sans-serif" font-size="16" font-weight="bold" text-anchor="middle" fill="white">4</text>
  <circle cx="305" cy="256.5" r="18" fill="#333"/>
  <text x="305" y="264.5" font-family="Arial, sans-serif" font-size="16" font-weight="bold" text-anchor="middle" fill="white">1</text>
  <text x="200" y="470" font-family="Arial, sans-serif" font-size="14" text-anchor="middle" fill="#FF8C00" font-weight="bold">● = Root Note</text>
  <text x="200" y="510" font-family="Arial, sans-serif" font-size="16" text-anchor="middle" fill="#666">Finger Numbers: 1=Index, 2=Middle, 3=Ring, 4=Pinky</text>
</svg>